 <svg
      xmlns="http://www.w3.org/2000/svg"
      width="518"
      height="286"
      fill="none"
      viewBox="0 0 518 286"
    >
      <path
        fill="#FF5C00"
        d="M159.155 215.412c9.09 27.894-5.986 58.575-33.946 67.686-27.96 9.111-57.995-6.115-67.085-34.009l-30.9-94.828c-5.703-17.499-3.806-33.573-.03-45.918 5.185-16.942 20.804-27.92 38.397-30.014 24.567-2.923 50.489.033 55.312 14.834l38.252 122.249z"
      ></path>
      <path
        fill="#FF843F"
        d="M3.054 73.638c-9.069-27.83 6.14-57.743 33.971-66.813 27.83-9.069 57.744 6.14 66.813 33.971l26.026 79.867c7.974 24.47 1.926 5.909-31.693 19.018-10.533 4.107-21.345 7.712-32.286 10.559-36.848 9.589-30.689 28.489-38.706 3.885L3.054 73.638z"
      ></path>
      <path
        fill="#626262"
        d="M287.304 22.84V106H271.68V62.656l.756-24.318h-.252L249.126 106h-14.238l-22.932-67.662h-.252l.882 24.318V106h-15.75V22.84h25.2L237.03 68.2l5.292 18.774h.252l5.418-18.648L262.86 22.84h24.444zM308.932 106V22.84h62.37v13.986H326.32V57.49h35.406v13.356H326.32v21.168h46.746V106h-64.134zM420.796 22.84c13.02 0 23.1 3.612 30.24 10.836 7.14 7.224 10.71 17.472 10.71 30.744 0 13.272-3.57 23.52-10.71 30.744-7.14 7.224-17.22 10.836-30.24 10.836h-32.13V22.84h32.13zm-.882 69.3c7.896 0 13.818-2.352 17.766-7.056 4.032-4.788 6.048-11.676 6.048-20.664 0-8.988-2.016-15.834-6.048-20.538-3.948-4.788-9.87-7.182-17.766-7.182h-13.86v55.44h13.86zM268.026 209.068c-2.52 8.148-6.93 14.238-13.23 18.27-6.3 3.948-13.65 5.922-22.05 5.922-8.232 0-15.372-1.722-21.42-5.166-5.964-3.444-10.584-8.358-13.86-14.742-3.192-6.384-4.788-14.028-4.788-22.932 0-8.904 1.638-16.548 4.914-22.932s7.896-11.298 13.86-14.742c5.964-3.444 12.978-5.166 21.042-5.166 8.484 0 15.75 1.806 21.798 5.418 6.132 3.528 10.332 8.904 12.6 16.128l-15.75 6.678c-1.428-5.04-3.612-8.61-6.552-10.71-2.94-2.184-6.72-3.276-11.34-3.276-6.888 0-12.39 2.478-16.506 7.434-4.032 4.872-6.048 11.928-6.048 21.168 0 9.156 1.932 16.212 5.796 21.168 3.864 4.956 9.45 7.434 16.758 7.434 4.536 0 8.442-1.218 11.718-3.654 3.36-2.436 5.712-6.132 7.056-11.088l16.002 4.788zM273.522 232l30.366-83.16h20.79L355.044 232h-18.018l-6.93-20.286h-32.004L291.288 232h-17.766zm36.918-56.826l-8.064 23.688h23.436L318 175.426l-3.78-12.6h-.252l-3.528 12.348zM404.045 148.84c9.324 0 16.674 2.268 22.05 6.804 5.46 4.536 8.19 10.626 8.19 18.27 0 6.132-1.554 11.214-4.662 15.246-3.024 3.948-7.308 6.72-12.852 8.316L439.199 232h-19.53l-19.53-31.878h-15.624V232h-17.136v-83.16h36.666zm-2.016 38.052c9.66 0 14.49-4.032 14.49-12.096s-4.83-12.096-14.49-12.096h-17.514v24.192h17.514zM453.02 232v-83.16h62.37v13.986h-44.982v20.664h35.406v13.356h-35.406v21.168h46.746V232H453.02z"
      ></path>
    </svg>